<svg width="78" height="16" viewBox="0 0 78 16" fill="none" xmlns="http://www.w3.org/2000/svg">
<path d="M28.6021 1.86426H32.2046C33.8758 1.86426 35.0822 2.10775 35.8237 2.59473C36.5708 3.08171 36.9443 3.85091 36.9443 4.90234C36.9443 5.61068 36.7617 6.20003 36.3965 6.67041C36.0312 7.14079 35.5055 7.43685 34.8193 7.55859V7.6416C35.6715 7.80208 36.2969 8.12028 36.6953 8.59619C37.0993 9.06657 37.3013 9.70573 37.3013 10.5137C37.3013 11.6038 36.9194 12.4588 36.1558 13.0786C35.3976 13.6929 34.3407 14 32.9849 14H28.6021V1.86426ZM30.5859 6.87793H32.4951C33.3252 6.87793 33.9312 6.74788 34.313 6.48779C34.6948 6.22217 34.8857 5.77393 34.8857 5.14307C34.8857 4.57308 34.6782 4.16081 34.2632 3.90625C33.8537 3.65169 33.2007 3.52441 32.3042 3.52441H30.5859V6.87793ZM30.5859 8.48828V12.3315H32.6943C33.5244 12.3315 34.1497 12.1738 34.5703 11.8584C34.9964 11.5374 35.2095 11.0339 35.2095 10.3477C35.2095 9.7168 34.9937 9.24919 34.562 8.94482C34.1304 8.64046 33.4746 8.48828 32.5947 8.48828H30.5859ZM39.8247 14V1.86426H41.8086V12.2983H46.9468V14H39.8247ZM56.5674 14L55.3555 10.6299H50.7153L49.5283 14H47.4365L51.9771 1.81445H54.1353L58.6758 14H56.5674ZM54.8325 8.91992L53.6953 5.61621C53.6123 5.39486 53.4961 5.04622 53.3467 4.57031C53.2028 4.0944 53.1032 3.74577 53.0479 3.52441C52.8984 4.20508 52.6799 4.94938 52.3921 5.75732L51.2964 8.91992H54.8325ZM67.2754 10.7046C67.2754 11.7837 66.8853 12.6304 66.105 13.2446C65.3247 13.8589 64.2484 14.166 62.876 14.166C61.5036 14.166 60.3802 13.953 59.5059 13.5269V11.6509C60.0592 11.911 60.6458 12.1157 61.2656 12.2651C61.891 12.4146 62.472 12.4893 63.0088 12.4893C63.7946 12.4893 64.3729 12.3398 64.7437 12.041C65.12 11.7422 65.3081 11.341 65.3081 10.8374C65.3081 10.3836 65.1366 9.99902 64.7935 9.68359C64.4504 9.36816 63.742 8.99463 62.6685 8.56299C61.5617 8.11475 60.7814 7.60286 60.3276 7.02734C59.8739 6.45182 59.647 5.76009 59.647 4.95215C59.647 3.93945 60.0067 3.14258 60.7261 2.56152C61.4455 1.98047 62.4111 1.68994 63.623 1.68994C64.7852 1.68994 65.9417 1.9445 67.0928 2.45361L66.4619 4.07227C65.3828 3.61849 64.4199 3.3916 63.5732 3.3916C62.9313 3.3916 62.4443 3.53271 62.1123 3.81494C61.7803 4.09163 61.6143 4.45964 61.6143 4.91895C61.6143 5.23438 61.6807 5.50553 61.8135 5.73242C61.9463 5.95378 62.1649 6.16406 62.4692 6.36328C62.7736 6.5625 63.3215 6.82536 64.1128 7.15186C65.0037 7.52262 65.6567 7.86849 66.0718 8.18945C66.4868 8.51042 66.7912 8.87288 66.9849 9.27686C67.1785 9.68083 67.2754 10.1567 67.2754 10.7046ZM73.8164 14H71.8325V3.56592H68.2632V1.86426H77.3857V3.56592H73.8164V14Z" fill="#0e2d49"/>
<rect y="6" width="2" height="4" rx="1" fill="#F65656"/>
<rect x="20" y="6" width="2" height="4" rx="1" fill="#F65656"/>
<rect x="12" y="3" width="2" height="10" rx="1" fill="#F65656"/>
<rect x="16" y="2" width="2" height="12" rx="1" fill="#F65656"/>
<rect x="8" width="2" height="16" rx="1" fill="#F65656"/>
<rect x="4" y="3" width="2" height="10" rx="1" fill="#F65656"/>
</svg>
